<?xml version="1.0" encoding="iso-8859-1"?>
<!-- Uploaded to: SVG Repo, www.svgrepo.com, Generator: SVG Repo Mixer Tools -->
<svg fill="#fff" height="800px" width="800px" version="1.1" id="Layer_1" xmlns="http://www.w3.org/2000/svg" xmlns:xlink="http://www.w3.org/1999/xlink" 
	 viewBox="0 0 511.526 511.526" xml:space="preserve">
<g transform="translate(1 1)">
	<g>
		<g>
			<path d="M510.147,141.27l-34.133-102.4c-0.853-3.413-4.267-5.973-7.68-5.973h-17.067c-3.413,0-5.973,1.707-7.68,5.12
				l-16.091,37.547H255c-1.707,0-4.267,0.853-5.973,2.56l-108.62,108.62c-12.67,1.692-21.94,12.094-21.94,25.353v59.733H75.8H33.987
				C14.36,271.83-1,288.043-1,306.816v7.68v34.133c0,5.12,3.413,8.533,8.533,8.533h128v8.533H54.467
				C23.747,365.696-1,390.443-1,421.163c0,30.72,24.747,55.467,55.467,55.467H319c30.72,0,55.467-24.747,55.467-55.467
				c0-30.72-24.747-55.467-55.467-55.467h-81.067v-8.533h25.6c5.12,0,8.533-3.413,8.533-8.533v-30.839
				c0.513-1.052,0.853-2.171,0.853-3.294v-66.56c0-20.48-10.24-39.253-27.307-51.2c-4.348-2.898-9.006-5.175-13.969-6.843
				l44.689-46.064l144.817-5.663l20.546,184.916c-4.537,0.433-7.496,3.716-7.496,8.481v34.133c0,3.228,1.359,5.775,3.644,7.218
				l-45.458,90.915c-1.707,2.56-1.707,5.973,0,8.533c1.707,2.56,5.12,4.267,7.68,4.267h48.64c25.6,0,48.64-16.213,56.32-41.813
				c4.267-11.947,4.267-25.6,0-37.547l-8.029-23.512c3.368-1.096,5.469-4.05,5.469-8.061v-34.133c0-5.12-3.413-8.533-8.533-8.533
				l16.213-178.347C511,143.83,510.147,142.123,510.147,141.27z M457.24,49.963h5.12l31.573,94.72L477.72,323.03h-18.773
				L434.2,102.87L457.24,49.963z M485.4,356.31h-34.133v-16.213H485.4V356.31z M220.85,204.794
				c6.447,1.569,12.429,4.597,17.529,8.802c0.367,0.308,0.738,0.613,1.095,0.931c0.102,0.09,0.203,0.181,0.305,0.272
				c1.907,1.73,3.665,3.604,5.259,5.596c0.193,0.244,0.383,0.491,0.571,0.739c0.144,0.188,0.283,0.38,0.424,0.569
				c2.225,3.038,4.103,6.392,5.554,10.019c0.314,0.627,0.6,1.254,0.864,1.883c1.642,4.568,2.55,9.397,2.55,14.331v54.613
				l-59.733-21.333c-10.24-4.267-17.067-13.653-17.067-24.747v-52.907h31.573C213.521,203.563,217.265,203.978,220.85,204.794z
				 M33.971,288.897c0.005,0,0.01-0.001,0.015-0.001h33.28c0,9.387-7.68,17.067-17.067,17.067H16.107
				c0.006-0.148,0.011-0.297,0.021-0.444C17.18,296.343,24.741,288.906,33.971,288.897z M357.4,421.163
				c0,21.333-17.067,38.4-38.4,38.4H54.467c-21.333,0-38.4-17.067-38.4-38.4c0-21.333,17.067-38.4,38.4-38.4h89.6H229.4H319
				C340.333,382.763,357.4,399.83,357.4,421.163z M220.867,365.696H152.6v-8.533h68.267V365.696z M229.4,340.096h-85.333h-128
				V323.03H50.2c18.773,0,34.133-15.36,34.133-34.133H127c5.12,0,8.533-3.413,8.533-8.533v-68.267c0-4.267,3.413-8.533,8.533-8.533
				h17.92v52.053c0,18.773,11.093,34.987,28.16,40.96L255,320.017v20.079H229.4z M272.067,126.763c-2.56,0-4.267,0.853-5.973,2.56
				l-54.613,57.173h-0.853h-0.853H170.52h-5.973l93.867-93.867h161.768l-2.194,5.12c-0.853,1.707-0.853,2.56-0.853,4.267
				l1.994,17.946L272.067,126.763z M488.813,430.55c-5.12,17.067-21.333,29.013-40.107,29.013H413.72l42.667-85.333h23.04
				l9.387,29.013C491.373,412.63,491.373,422.016,488.813,430.55z"/>
			<path d="M67.267,391.296c-0.564,0-1.103,0.048-1.622,0.129c-0.873-0.081-1.754-0.129-2.644-0.129
				c-16.213,0-29.867,13.653-29.867,29.867c0,16.213,13.653,29.867,29.867,29.867c0.89,0,1.771-0.048,2.644-0.129
				c0.52,0.08,1.059,0.129,1.622,0.129H306.2c0.52,0,1.018-0.055,1.501-0.138c0.912,0.088,1.834,0.138,2.766,0.138
				c16.213,0,29.867-13.653,29.867-29.867c0-16.213-13.653-29.867-29.867-29.867c-0.89,0-1.771,0.048-2.644,0.129
				c-0.52-0.08-1.059-0.129-1.622-0.129H67.267z M50.2,421.163c0-6.827,5.973-12.8,12.8-12.8c6.375,0,12.002,5.21,12.72,11.459
				c0.004,0.033,0.01,0.065,0.013,0.098c0.044,0.411,0.067,0.825,0.067,1.243s-0.024,0.833-0.067,1.243
				c-0.003,0.033-0.01,0.065-0.013,0.098c-0.717,6.249-6.344,11.459-12.72,11.459C56.173,433.963,50.2,427.99,50.2,421.163z
				 M92.867,421.163c0-4.267-0.853-8.533-2.56-12.8h193.275c-1.905,3.902-2.981,8.25-2.981,12.8c0,4.55,1.076,8.898,2.981,12.8
				H90.307C92.013,429.696,92.867,425.43,92.867,421.163z M323.267,421.163c0,6.827-5.973,12.8-12.8,12.8
				c-6.375,0-12.002-5.21-12.72-11.459c-0.004-0.033-0.01-0.065-0.013-0.098c-0.044-0.411-0.067-0.825-0.067-1.243
				c0-0.425,0.023-0.847,0.068-1.265c0-0.005,0.001-0.009,0.002-0.014c0.686-6.277,6.333-11.522,12.73-11.522
				C317.293,408.363,323.267,414.336,323.267,421.163z"/>
		</g>
	</g>
</g>
</svg>